<svg width="100%" height="100%" viewBox="-6686.467480886047 2256.6895860555614 6639.341200232028 4491.963183957951" xmlns="http://www.w3.org/2000/svg" xmlns:xlink="http://www.w3.org/1999/xlink" version="1.1" style="stroke-linecap: round; stroke-linejoin: round; fill: none; background: rgb(0, 0, 0);"><defs>\n  <radialGradient id="background">\n    <stop offset="33%" stop-color="#171717"></stop>\n    <stop offset="66%" stop-color="#131313"></stop>\n    <stop offset="100%" stop-color="#000000"></stop>\n  </radialGradient>\n</defs><rect width="6639.341200232028" height="4491.963183957951" x="-6686.467480886047" y="2256.6895860555614" fill="url('#background')"></rect><path xmlns="http://www.w3.org/2000/svg" d="M-177 -1000C-177 -952 -191 -903 -191 -858,C-191 -810 -154 -795 -163 -744,C-239 -287 -575 358 -816 758,C-834 789 -931 945 -957 971,C-967 981 -999 1000 -986 1000,C-885 1000 -523 753 -404 702,C-192 609 125 588 361 574,C573 561 790 622 999 645" style="stroke-width: 402.679; transform: matrix(0.245583, 0, 0, 0.245583, -3845.13, 4934.02);" class="selected" stroke="#FFFFFF"></path><path xmlns="http://www.w3.org/2000/svg" d="M121 -1000C-9 -346 -121 329 -121 1000" style="stroke-width: 430.135; transform: matrix(0.229908, 0, 0, 0.229908, -3721.57, 5120.39);" class="selected" stroke="#FFFFFF"></path><path xmlns="http://www.w3.org/2000/svg" d="M14 -791C-500 -663 -450 999 120 942,C430 911 500 -373 395 -614,C294 -846 49 -1000 -180 -818,C-207 -797 -214 -758 -233 -729" style="stroke-width: 251.255; transform: matrix(0.39359, 0, 0, 0.39359, -3302.3, 4961.79);" class="selected" stroke="#FFFFFF"></path><path xmlns="http://www.w3.org/2000/svg" d="M-84 -999C45 -609 -247 274 -382 677,C-489 1000 -425 906 -73 931,C127 946 292 967 489 931" style="stroke-width: 313.397; transform: matrix(0.315547, 0, 0, 0.315547, -2869.38, 4906.45);" class="selected" stroke="#FFFFFF"></path><path xmlns="http://www.w3.org/2000/svg" d="M63 -1000C63 -428 67 463 -67 1000" style="stroke-width: 411.433; transform: matrix(0.240358, 0, 0, 0.240358, -2757.96, 5280.62);" class="selected" stroke="#FFFFFF"></path><path xmlns="http://www.w3.org/2000/svg" d="M-706 -306C679 -1000 706 1000 -681 1000" style="stroke-width: 279.987; transform: matrix(0.141007, 0.00877144, -0.00877144, 0.141007, -4728.49, 5801.19);" class="selected" stroke="#FFC107"></path><path xmlns="http://www.w3.org/2000/svg" d="M999 -508C999 -908 -1000 -873 -554 462,C-433 826 -15 908 319 786,C677 656 994 -304 902 -670,C889 -725 806 -609 805 -606,C754 -141 740 350 740 819" style="stroke-width: 367.795; transform: matrix(0.107343, 0.00667733, -0.00667733, 0.107343, -4499.62, 5851.26);" class="selected" stroke="#FFC107"></path><path xmlns="http://www.w3.org/2000/svg" d="M-137 -740C-332 -935 -530 -752 -500 -510,C-495 -472 -484 -373 -451 -341,C-205 -94 57 -775 -40 -970,C-54 -1000 -35 -905 -28 -874,C64 -443 530 346 129 748,C-122 1000 -391 538 -391 324" style="stroke-width: 137.482; transform: matrix(0.287167, 0.0178634, -0.0178634, 0.287167, -4183.44, 6054.1);" class="selected" stroke="#FFC107"></path><path xmlns="http://www.w3.org/2000/svg" d="M-775 284C-457 390 -86 185 157 -16,C296 -133 708 -683 428 -739,C-136 -852 -1000 356 -234 675,C190 852 585 675 1000 675" style="stroke-width: 341.805; transform: matrix(0.115505, 0.00718506, -0.00718506, 0.115505, -3938.88, 5850.73);" class="selected" stroke="#FFC107"></path><path xmlns="http://www.w3.org/2000/svg" d="M-1000 -467C-1000 -349 -792 831 -727 896,C-683 940 -705 772 -681 714,C-610 535 -560 352 -500 169,C-444 3 26 -940 318 -648,C689 -277 627 433 1000 805" style="stroke-width: 516.162; transform: matrix(0.0764881, 0.00475799, -0.00475799, 0.0764881, -3471.08, 5861.37);" class="selected" stroke="#FFC107"></path><path xmlns="http://www.w3.org/2000/svg" d="M-413 -97C-413 108 -580 315 -527 527,C-409 999 580 307 580 -97,C580 -1000 -300 -556 -300 214" style="stroke-width: 322.487; transform: matrix(0.122424, 0.00761547, -0.00761547, 0.122424, -3249.03, 5858.32);" class="selected" stroke="#FFC107"></path><path xmlns="http://www.w3.org/2000/svg" d="M-414 -1000C-414 -488 -670 1000 94 1000,C319 1000 501 965 670 796" style="stroke-width: 384.934; transform: matrix(0.102564, 0.00638003, -0.00638003, 0.102564, -2985.15, 5860.97);" class="selected" stroke="#FFC107"></path><path xmlns="http://www.w3.org/2000/svg" d="M-1000 261C-848 261 863 -170 1000 -261" style="stroke-width: 540.741; transform: matrix(0.0730114, 0.00454172, -0.00454172, 0.0730114, -3032.86, 5830.08);" class="selected" stroke="#FFC107"></path><path xmlns="http://www.w3.org/2000/svg" d="M153 -940C66 -970 -60 -999 -109 -890,C-230 -617 230 546 3 999" style="stroke-width: 142.19; transform: matrix(0.278034, 0.00947375, -0.00947375, 0.278034, -2468.97, 6063.65);" class="selected" stroke="#FFC107"></path><path xmlns="http://www.w3.org/2000/svg" d="M-1000 179C-456 179 559 85 1000 -179" style="stroke-width: 338.972; transform: matrix(0.116628, 0.00397399, -0.00397399, 0.116628, -2469.64, 5958.58);" class="selected" stroke="#FFC107"></path><path xmlns="http://www.w3.org/2000/svg" d="M-169 -854C-291 -793 -345 -840 -475 -743,C-1000 -349 -746 854 24 700,C1000 505 764 -771 -280 -771" style="stroke-width: 315.241; transform: matrix(0.125407, 0.00427315, -0.00427315, 0.125407, -2186.84, 5904.7);" class="selected" stroke="#FFC107"></path><path xmlns="http://www.w3.org/2000/svg" d="M-836 -598C-836 -46 154 1000 568 171,C605 97 663 -1000 702 -1000,C717 -1000 684 -261 702 -163,C740 45 836 270 836 472" style="stroke-width: 380.001; transform: matrix(0.104035, 0.00354492, -0.00354492, 0.104035, -1954.34, 5923.45);" class="selected" stroke="#FFC107"></path><path xmlns="http://www.w3.org/2000/svg" d="M-999 -669C-999 -211 -898 254 -857 711,C-856 719 -886 979 -809 901,C-486 578 -468 -377 -142 -812,C-72 -906 130 -955 238 -955,C323 -955 452 -979 523 -907,C686 -745 1000 598 1000 854" style="stroke-width: 540.741; transform: matrix(0.0731101, 0.00249116, -0.00249116, 0.0731101, -1681.27, 5888.08);" class="selected" stroke="#FFC107"></path><path xmlns="http://www.w3.org/2000/svg" d="M792 -255C420 -999 -792 -455 -478 328,C-210 1000 473 665 689 19" style="stroke-width: 390.168; transform: matrix(0.101325, 0.00345255, -0.00345255, 0.101325, -1479.12, 5882.35);" class="selected" stroke="#FFC107"></path><path xmlns="http://www.w3.org/2000/svg" d="M203 -1000C-203 -593 123 505 -41 999" style="stroke-width: 231.746; transform: matrix(0.17059, 0.00581271, -0.00581271, 0.17059, -1398.96, 5789.42);" class="selected" stroke="#FFC107"></path><path xmlns="http://www.w3.org/2000/svg" d="M170 -999C74 -904 -170 756 -170 1000" style="stroke-width: 227.111; transform: matrix(0.174072, 0.00593134, -0.00593134, 0.174072, -4856.8, 5946.95);" class="selected" stroke="#FFC107"></path></svg>